<svg xmlns="http://www.w3.org/2000/svg" xmlns:xlink="http://www.w3.org/1999/xlink" width="883" height="275" version="1.1" viewBox="0 0 883 275"><title>logo-white</title><desc>Created with Sketch.</desc><g id="Page-1" fill="none" fill-rule="evenodd" stroke="none" stroke-width="1"><g id="logo-white"><g id="Group-4"><rect id="Rectangle-21" width="31.19" height="266.183" x="614.308" y="0" fill="#FFF" rx="25" transform="translate(629.902988, 133.091425) rotate(25.000000) translate(-629.902988, -133.091425)"/><path id="Combined-Shape" fill="#FFF" d="M24.0694834,150.282751 C24.3954052,150.495634 24.7313993,150.698271 25.0772738,150.889992 L31.0927213,154.224409 L35.6108407,156.760117 L35.62928,156.739065 L146.76673,218.343559 C154.499791,222.630065 164.238069,219.836625 168.522694,212.106958 C172.80826,204.375591 170.01359,194.637246 162.282727,190.351958 L65.2825905,136.583905 L161.389257,81.096695 C169.046331,76.6758814 171.667469,66.8898196 167.248596,59.2361069 C162.828751,51.5807112 153.041998,48.9605926 145.387102,53.3801493 L53.4151574,106.480176 L53.4220516,106.460591 L0.237180976,136.907328 L24.0694834,150.282751 Z"/><path id="Combined-Shape" fill="#FFF" d="M746.061226,151.18704 C746.387148,151.399924 746.723142,151.60256 747.069017,151.794281 L753.084464,155.128698 L757.602583,157.664406 L757.621023,157.643354 L868.758473,219.247848 C876.491534,223.534354 886.229812,220.740914 890.514437,213.011247 C894.800003,205.27988 892.005333,195.541535 884.27447,191.256248 L787.274333,137.488194 L883.381,82.0009842 C891.038073,77.5801705 893.659212,67.7941088 889.240339,60.140396 C884.820494,52.4850004 875.033741,49.8648817 867.378844,54.2844384 L775.4069,107.384465 L775.413794,107.36488 L722.228924,137.811617 L746.061226,151.18704 Z" transform="translate(807.376396, 136.697576) rotate(-180.000000) translate(-807.376396, -136.697576)"/><g id="Group-3" transform="translate(214.652058, 0.000000)"><rect id="Rectangle-8" width="304.782" height="275" x="0" y="0" fill="#FFF" rx="14"/><path id="Combined-Shape" fill="#D8D8D8" d="M304.782205,34.4894958 L304.782205,13.9951464 C304.782205,6.27544136 298.513814,0 290.781362,0 L14.0008428,0 C6.26100502,0 0,6.26584047 0,13.9951464 L0,34.4894958 L0,50.9698276 L304.782205,50.9698276 L304.782205,34.4894958 Z"/><ellipse id="Oval-7" cx="23.125" cy="25.485" fill="#FF6059" rx="11.266" ry="11.261"/><ellipse id="Oval-7" cx="50.402" cy="25.485" fill="#FFBD2E" rx="11.266" ry="11.261"/><ellipse id="Oval-7" cx="76.492" cy="25.485" fill="#29CE42" rx="11.266" ry="11.261"/><path id="Combined-Shape" fill="#E6E6E6" d="M29.6480744,224.030172 L276.320053,224.030172 L276.320053,237.068966 L29.6480744,237.068966 L29.6480744,224.030172 Z M29.6480744,189.655172 L276.320053,189.655172 L276.320053,202.693966 L29.6480744,202.693966 L29.6480744,189.655172 Z M29.6480744,155.280172 L143.914348,155.280172 L143.914348,168.318966 L29.6480744,168.318966 L29.6480744,155.280172 Z M29.6479294,123.280029 L143.914203,123.280029 L143.914203,136.318822 L29.6479294,136.318822 L29.6479294,123.280029 Z M29.6480744,88.9008621 L143.914348,88.9008621 L143.914348,101.939655 L29.6480744,101.939655 L29.6480744,88.9008621 Z"/><rect id="Rectangle-14" width="116.32" height="79.418" x="160" y="88.901" fill="#D8D8D8"/></g></g></g></g></svg>