<svg xmlns="http://www.w3.org/2000/svg" xmlns:xlink="http://www.w3.org/1999/xlink" width="883" height="275" version="1.1" viewBox="0 0 883 275"><title>logo-black</title><desc>Created with Sketch.</desc><g id="Page-1" fill="none" fill-rule="evenodd" stroke="none" stroke-width="1"><g id="logo-black"><rect id="Rectangle-21" width="31.19" height="266.183" x="614.308" y="0" fill="#000" rx="25" transform="translate(629.902988, 133.091425) rotate(25.000000) translate(-629.902988, -133.091425)"/><path id="Combined-Shape" fill="#000" d="M24.0694834,150.282751 C24.3954052,150.495634 24.7313993,150.698271 25.0772738,150.889992 L31.0927213,154.224409 L35.6108407,156.760117 L35.62928,156.739065 L146.76673,218.343559 C154.499791,222.630065 164.238069,219.836625 168.522694,212.106958 C172.80826,204.375591 170.01359,194.637246 162.282727,190.351958 L65.2825905,136.583905 L161.389257,81.096695 C169.046331,76.6758814 171.667469,66.8898196 167.248596,59.2361069 C162.828751,51.5807112 153.041998,48.9605926 145.387102,53.3801493 L53.4151574,106.480176 L53.4220516,106.460591 L0.237180976,136.907328 L24.0694834,150.282751 Z"/><path id="Combined-Shape" fill="#000" d="M746.061226,151.18704 C746.387148,151.399924 746.723142,151.60256 747.069017,151.794281 L753.084464,155.128698 L757.602583,157.664406 L757.621023,157.643354 L868.758473,219.247848 C876.491534,223.534354 886.229812,220.740914 890.514437,213.011247 C894.800003,205.27988 892.005333,195.541535 884.27447,191.256248 L787.274333,137.488194 L883.381,82.0009842 C891.038073,77.5801705 893.659212,67.7941088 889.240339,60.140396 C884.820494,52.4850004 875.033741,49.8648817 867.378844,54.2844384 L775.4069,107.384465 L775.413794,107.36488 L722.228924,137.811617 L746.061226,151.18704 Z" transform="translate(807.376396, 136.697576) rotate(-180.000000) translate(-807.376396, -136.697576)"/><rect id="Rectangle-8" width="304.782" height="275" x="214.652" y="0" fill="#000" rx="14"/><path id="Combined-Shape" fill="#000" d="M519.434263,34.4894958 L519.434263,13.9951464 C519.434263,6.27544136 513.165872,0 505.43342,0 L228.652901,0 C220.913063,0 214.652058,6.26584047 214.652058,13.9951464 L214.652058,34.4894958 L214.652058,50.9698276 L519.434263,50.9698276 L519.434263,34.4894958 Z"/><ellipse id="Oval-7" cx="237.778" cy="25.485" fill="#FFF" rx="11.266" ry="11.261"/><ellipse id="Oval-7" cx="265.054" cy="25.485" fill="#FFF" rx="11.266" ry="11.261"/><ellipse id="Oval-7" cx="291.144" cy="25.485" fill="#FFF" rx="11.266" ry="11.261"/><path id="Combined-Shape" fill="#FFF" d="M244.300133,224.030172 L490.972112,224.030172 L490.972112,237.068966 L244.300133,237.068966 L244.300133,224.030172 Z M244.300133,189.655172 L490.972112,189.655172 L490.972112,202.693966 L244.300133,202.693966 L244.300133,189.655172 Z M244.300133,155.280172 L358.566406,155.280172 L358.566406,168.318966 L244.300133,168.318966 L244.300133,155.280172 Z M244.299988,123.280029 L358.566261,123.280029 L358.566261,136.318822 L244.299988,136.318822 L244.299988,123.280029 Z M244.300133,88.9008621 L358.566406,88.9008621 L358.566406,101.939655 L244.300133,101.939655 L244.300133,88.9008621 Z"/><rect id="Rectangle-14" width="116.32" height="79.418" x="374.652" y="88.901" fill="#FFF"/></g></g></svg>